<?xml version="1.0" encoding="UTF-8" standalone="no"?>
<!DOCTYPE svg PUBLIC "-//W3C//DTD SVG 1.1//EN"
 "http://www.w3.org/Graphics/SVG/1.1/DTD/svg11.dtd">
<!-- Generated by graphviz version 2.40.1 (20161225.0304)
 -->
<!-- Title: dependencies Pages: 1 -->
<svg width="609pt" height="211pt"
 viewBox="0.00 0.00 609.00 211.00" xmlns="http://www.w3.org/2000/svg" xmlns:xlink="http://www.w3.org/1999/xlink">
<g id="graph0" class="graph" transform="scale(1 1) rotate(0) translate(4 207)">
<title>dependencies</title>
<polygon fill="#ffffff" stroke="transparent" points="-4,4 -4,-207 605,-207 605,4 -4,4"/>
<text text-anchor="start" x="279.5091" y="-42.4" font-family="sans-serif" font-weight="bold" font-size="14.00" fill="#000000">Legend</text>
<polygon fill="#ffffb3" stroke="transparent" points="66.5,-10 66.5,-30 86.5,-30 86.5,-10 66.5,-10"/>
<text text-anchor="start" x="90.129" y="-15.4" font-family="sans-serif" font-size="14.00" fill="#000000"> &#160;Declarations</text>
<polygon fill="#8dd3c7" stroke="transparent" points="179.5,-10 179.5,-30 199.5,-30 199.5,-10 179.5,-10"/>
<text text-anchor="start" x="203.2251" y="-15.4" font-family="sans-serif" font-size="14.00" fill="#000000"> &#160;Module</text>
<polygon fill="#80b1d3" stroke="transparent" points="265.5,-10 265.5,-30 285.5,-30 285.5,-10 265.5,-10"/>
<text text-anchor="start" x="289.2812" y="-15.4" font-family="sans-serif" font-size="14.00" fill="#000000"> &#160;Bootstrap</text>
<polygon fill="#fdb462" stroke="transparent" points="362.5,-10 362.5,-30 382.5,-30 382.5,-10 362.5,-10"/>
<text text-anchor="start" x="386.1732" y="-15.4" font-family="sans-serif" font-size="14.00" fill="#000000"> &#160;Providers</text>
<polygon fill="#fb8072" stroke="transparent" points="458.5,-10 458.5,-30 478.5,-30 478.5,-10 458.5,-10"/>
<text text-anchor="start" x="482.2258" y="-15.4" font-family="sans-serif" font-size="14.00" fill="#000000"> &#160;Exports</text>
<g id="clust1" class="cluster">
<title>cluster_ShippingModule</title>
<polygon fill="none" stroke="#000000" stroke-dasharray="1,5" points="8,-70 8,-195 593,-195 593,-70 8,-70"/>
</g>
<g id="clust2" class="cluster">
<title>cluster_ShippingModule_declarations</title>
<polygon fill="none" stroke="#000000" points="437,-78 437,-130 585,-130 585,-78 437,-78"/>
</g>
<g id="clust4" class="cluster">
<title>cluster_ShippingModule_imports</title>
<polygon fill="none" stroke="#000000" points="16,-78 16,-130 429,-130 429,-78 16,-78"/>
</g>
<!-- ShippingComponent -->
<g id="node1" class="node">
<title>ShippingComponent</title>
<polygon fill="#ffffb3" stroke="#000000" points="576.8962,-122 445.1038,-122 445.1038,-86 576.8962,-86 576.8962,-122"/>
<text text-anchor="middle" x="511" y="-99.8" font-family="Times,serif" font-size="14.00" fill="#000000">ShippingComponent</text>
</g>
<!-- ShippingModule -->
<g id="node2" class="node">
<title>ShippingModule</title>
<polygon fill="#8dd3c7" stroke="#000000" points="362.1137,-187 359.1137,-191 338.1137,-191 335.1137,-187 251.8863,-187 251.8863,-151 362.1137,-151 362.1137,-187"/>
<text text-anchor="middle" x="307" y="-164.8" font-family="Times,serif" font-size="14.00" fill="#000000">ShippingModule</text>
</g>
<!-- ShippingComponent&#45;&gt;ShippingModule -->
<g id="edge1" class="edge">
<title>ShippingComponent&#45;&gt;ShippingModule</title>
<path fill="none" stroke="#000000" d="M511,-122.1061C511,-141.3391 511,-169 511,-169 511,-169 372.2053,-169 372.2053,-169"/>
<polygon fill="#000000" stroke="#000000" points="372.2054,-165.5001 362.2053,-169 372.2053,-172.5001 372.2054,-165.5001"/>
</g>
<!-- FeaturesModule -->
<g id="node3" class="node">
<title>FeaturesModule</title>
<polygon fill="#8dd3c7" stroke="#000000" points="421.472,-122 418.472,-126 397.472,-126 394.472,-122 314.528,-122 314.528,-86 421.472,-86 421.472,-122"/>
<text text-anchor="middle" x="368" y="-99.8" font-family="Times,serif" font-size="14.00" fill="#000000">FeaturesModule</text>
</g>
<!-- FeaturesModule&#45;&gt;ShippingModule -->
<g id="edge2" class="edge">
<title>FeaturesModule&#45;&gt;ShippingModule</title>
<path fill="none" stroke="#000000" d="M338.2854,-122.1061C338.2854,-122.1061 338.2854,-140.991 338.2854,-140.991"/>
<polygon fill="#000000" stroke="#000000" points="334.7855,-140.9909 338.2854,-150.991 341.7855,-140.991 334.7855,-140.9909"/>
</g>
<!-- SharedModule -->
<g id="node4" class="node">
<title>SharedModule</title>
<polygon fill="#8dd3c7" stroke="#000000" points="296.4231,-122 293.4231,-126 272.4231,-126 269.4231,-122 197.5769,-122 197.5769,-86 296.4231,-86 296.4231,-122"/>
<text text-anchor="middle" x="247" y="-99.8" font-family="Times,serif" font-size="14.00" fill="#000000">SharedModule</text>
</g>
<!-- SharedModule&#45;&gt;ShippingModule -->
<g id="edge3" class="edge">
<title>SharedModule&#45;&gt;ShippingModule</title>
<path fill="none" stroke="#000000" d="M274.0771,-122.1061C274.0771,-122.1061 274.0771,-140.991 274.0771,-140.991"/>
<polygon fill="#000000" stroke="#000000" points="270.5772,-140.9909 274.0771,-150.991 277.5772,-140.991 270.5772,-140.9909"/>
</g>
<!-- ShippingRoutingModule -->
<g id="node5" class="node">
<title>ShippingRoutingModule</title>
<polygon fill="#8dd3c7" stroke="#000000" points="179.7316,-122 176.7316,-126 155.7316,-126 152.7316,-122 24.2684,-122 24.2684,-86 179.7316,-86 179.7316,-122"/>
<text text-anchor="middle" x="102" y="-99.8" font-family="Times,serif" font-size="14.00" fill="#000000">ShippingRoutingModule</text>
</g>
<!-- ShippingRoutingModule&#45;&gt;ShippingModule -->
<g id="edge4" class="edge">
<title>ShippingRoutingModule&#45;&gt;ShippingModule</title>
<path fill="none" stroke="#000000" d="M102,-122.1061C102,-141.3391 102,-169 102,-169 102,-169 241.7941,-169 241.7941,-169"/>
<polygon fill="#000000" stroke="#000000" points="241.7941,-172.5001 251.7941,-169 241.7941,-165.5001 241.7941,-172.5001"/>
</g>
</g>
</svg>
