<?xml version="1.0" encoding="UTF-8" standalone="no"?>
<!DOCTYPE svg PUBLIC "-//W3C//DTD SVG 1.1//EN"
 "http://www.w3.org/Graphics/SVG/1.1/DTD/svg11.dtd">
<!-- Generated by graphviz version 2.40.1 (20161225.0304)
 -->
<!-- Title: dependencies Pages: 1 -->
<svg width="504pt" height="211pt"
 viewBox="0.00 0.00 504.00 211.00" xmlns="http://www.w3.org/2000/svg" xmlns:xlink="http://www.w3.org/1999/xlink">
<g id="graph0" class="graph" transform="scale(1 1) rotate(0) translate(4 207)">
<title>dependencies</title>
<polygon fill="#ffffff" stroke="transparent" points="-4,4 -4,-207 500,-207 500,4 -4,4"/>
<text text-anchor="start" x="227.0091" y="-42.4" font-family="sans-serif" font-weight="bold" font-size="14.00" fill="#000000">Legend</text>
<polygon fill="#ffffb3" stroke="transparent" points="14,-10 14,-30 34,-30 34,-10 14,-10"/>
<text text-anchor="start" x="37.629" y="-15.4" font-family="sans-serif" font-size="14.00" fill="#000000"> &#160;Declarations</text>
<polygon fill="#8dd3c7" stroke="transparent" points="127,-10 127,-30 147,-30 147,-10 127,-10"/>
<text text-anchor="start" x="150.7251" y="-15.4" font-family="sans-serif" font-size="14.00" fill="#000000"> &#160;Module</text>
<polygon fill="#80b1d3" stroke="transparent" points="213,-10 213,-30 233,-30 233,-10 213,-10"/>
<text text-anchor="start" x="236.7812" y="-15.4" font-family="sans-serif" font-size="14.00" fill="#000000"> &#160;Bootstrap</text>
<polygon fill="#fdb462" stroke="transparent" points="310,-10 310,-30 330,-30 330,-10 310,-10"/>
<text text-anchor="start" x="333.6732" y="-15.4" font-family="sans-serif" font-size="14.00" fill="#000000"> &#160;Providers</text>
<polygon fill="#fb8072" stroke="transparent" points="406,-10 406,-30 426,-30 426,-10 406,-10"/>
<text text-anchor="start" x="429.7258" y="-15.4" font-family="sans-serif" font-size="14.00" fill="#000000"> &#160;Exports</text>
<g id="clust1" class="cluster">
<title>cluster_ShippingModule</title>
<polygon fill="none" stroke="#000000" stroke-dasharray="1,5" points="18,-70 18,-195 478,-195 478,-70 18,-70"/>
</g>
<g id="clust2" class="cluster">
<title>cluster_ShippingModule_declarations</title>
<polygon fill="none" stroke="#000000" points="322,-78 322,-130 470,-130 470,-78 322,-78"/>
</g>
<g id="clust4" class="cluster">
<title>cluster_ShippingModule_imports</title>
<polygon fill="none" stroke="#000000" points="26,-78 26,-130 314,-130 314,-78 26,-78"/>
</g>
<!-- ShippingComponent -->
<g id="node1" class="node">
<title>ShippingComponent</title>
<polygon fill="#ffffb3" stroke="#000000" points="461.8962,-122 330.1038,-122 330.1038,-86 461.8962,-86 461.8962,-122"/>
<text text-anchor="middle" x="396" y="-99.8" font-family="Times,serif" font-size="14.00" fill="#000000">ShippingComponent</text>
</g>
<!-- ShippingModule -->
<g id="node2" class="node">
<title>ShippingModule</title>
<polygon fill="#8dd3c7" stroke="#000000" points="312.1137,-187 309.1137,-191 288.1137,-191 285.1137,-187 201.8863,-187 201.8863,-151 312.1137,-151 312.1137,-187"/>
<text text-anchor="middle" x="257" y="-164.8" font-family="Times,serif" font-size="14.00" fill="#000000">ShippingModule</text>
</g>
<!-- ShippingComponent&#45;&gt;ShippingModule -->
<g id="edge1" class="edge">
<title>ShippingComponent&#45;&gt;ShippingModule</title>
<path fill="none" stroke="#000000" d="M396,-122.1061C396,-141.3391 396,-169 396,-169 396,-169 322.3359,-169 322.3359,-169"/>
<polygon fill="#000000" stroke="#000000" points="322.3359,-165.5001 312.3359,-169 322.3358,-172.5001 322.3359,-165.5001"/>
</g>
<!-- SharedModule -->
<g id="node3" class="node">
<title>SharedModule</title>
<polygon fill="#8dd3c7" stroke="#000000" points="306.4231,-122 303.4231,-126 282.4231,-126 279.4231,-122 207.5769,-122 207.5769,-86 306.4231,-86 306.4231,-122"/>
<text text-anchor="middle" x="257" y="-99.8" font-family="Times,serif" font-size="14.00" fill="#000000">SharedModule</text>
</g>
<!-- SharedModule&#45;&gt;ShippingModule -->
<g id="edge2" class="edge">
<title>SharedModule&#45;&gt;ShippingModule</title>
<path fill="none" stroke="#000000" d="M257,-122.1061C257,-122.1061 257,-140.991 257,-140.991"/>
<polygon fill="#000000" stroke="#000000" points="253.5001,-140.9909 257,-150.991 260.5001,-140.991 253.5001,-140.9909"/>
</g>
<!-- ShippingRoutingModule -->
<g id="node4" class="node">
<title>ShippingRoutingModule</title>
<polygon fill="#8dd3c7" stroke="#000000" points="189.7316,-122 186.7316,-126 165.7316,-126 162.7316,-122 34.2684,-122 34.2684,-86 189.7316,-86 189.7316,-122"/>
<text text-anchor="middle" x="112" y="-99.8" font-family="Times,serif" font-size="14.00" fill="#000000">ShippingRoutingModule</text>
</g>
<!-- ShippingRoutingModule&#45;&gt;ShippingModule -->
<g id="edge3" class="edge">
<title>ShippingRoutingModule&#45;&gt;ShippingModule</title>
<path fill="none" stroke="#000000" d="M112,-122.1061C112,-141.3391 112,-169 112,-169 112,-169 191.7681,-169 191.7681,-169"/>
<polygon fill="#000000" stroke="#000000" points="191.7681,-172.5001 201.7681,-169 191.768,-165.5001 191.7681,-172.5001"/>
</g>
</g>
</svg>
