<?xml version="1.0" encoding="UTF-8" standalone="no"?>
<!DOCTYPE svg PUBLIC "-//W3C//DTD SVG 1.1//EN"
 "http://www.w3.org/Graphics/SVG/1.1/DTD/svg11.dtd">
<!-- Generated by graphviz version 2.40.1 (20161225.0304)
 -->
<!-- Title: dependencies Pages: 1 -->
<svg width="614pt" height="211pt"
 viewBox="0.00 0.00 614.00 211.00" xmlns="http://www.w3.org/2000/svg" xmlns:xlink="http://www.w3.org/1999/xlink">
<g id="graph0" class="graph" transform="scale(1 1) rotate(0) translate(4 207)">
<title>dependencies</title>
<polygon fill="#ffffff" stroke="transparent" points="-4,4 -4,-207 610,-207 610,4 -4,4"/>
<text text-anchor="start" x="282.0091" y="-42.4" font-family="sans-serif" font-weight="bold" font-size="14.00" fill="#000000">Legend</text>
<polygon fill="#ffffb3" stroke="transparent" points="69,-10 69,-30 89,-30 89,-10 69,-10"/>
<text text-anchor="start" x="92.629" y="-15.4" font-family="sans-serif" font-size="14.00" fill="#000000"> &#160;Declarations</text>
<polygon fill="#8dd3c7" stroke="transparent" points="182,-10 182,-30 202,-30 202,-10 182,-10"/>
<text text-anchor="start" x="205.7251" y="-15.4" font-family="sans-serif" font-size="14.00" fill="#000000"> &#160;Module</text>
<polygon fill="#80b1d3" stroke="transparent" points="268,-10 268,-30 288,-30 288,-10 268,-10"/>
<text text-anchor="start" x="291.7812" y="-15.4" font-family="sans-serif" font-size="14.00" fill="#000000"> &#160;Bootstrap</text>
<polygon fill="#fdb462" stroke="transparent" points="365,-10 365,-30 385,-30 385,-10 365,-10"/>
<text text-anchor="start" x="388.6732" y="-15.4" font-family="sans-serif" font-size="14.00" fill="#000000"> &#160;Providers</text>
<polygon fill="#fb8072" stroke="transparent" points="461,-10 461,-30 481,-30 481,-10 461,-10"/>
<text text-anchor="start" x="484.7258" y="-15.4" font-family="sans-serif" font-size="14.00" fill="#000000"> &#160;Exports</text>
<g id="clust1" class="cluster">
<title>cluster_CheckoutModule</title>
<polygon fill="none" stroke="#000000" stroke-dasharray="1,5" points="8,-70 8,-195 598,-195 598,-70 8,-70"/>
</g>
<g id="clust2" class="cluster">
<title>cluster_CheckoutModule_declarations</title>
<polygon fill="none" stroke="#000000" points="440,-78 440,-130 590,-130 590,-78 440,-78"/>
</g>
<g id="clust4" class="cluster">
<title>cluster_CheckoutModule_imports</title>
<polygon fill="none" stroke="#000000" points="16,-78 16,-130 432,-130 432,-78 16,-78"/>
</g>
<!-- CheckoutComponent -->
<g id="node1" class="node">
<title>CheckoutComponent</title>
<polygon fill="#ffffb3" stroke="#000000" points="582.4888,-122 447.5112,-122 447.5112,-86 582.4888,-86 582.4888,-122"/>
<text text-anchor="middle" x="515" y="-99.8" font-family="Times,serif" font-size="14.00" fill="#000000">CheckoutComponent</text>
</g>
<!-- CheckoutModule -->
<g id="node2" class="node">
<title>CheckoutModule</title>
<polygon fill="#8dd3c7" stroke="#000000" points="325.7064,-187 322.7064,-191 301.7064,-191 298.7064,-187 212.2936,-187 212.2936,-151 325.7064,-151 325.7064,-187"/>
<text text-anchor="middle" x="269" y="-164.8" font-family="Times,serif" font-size="14.00" fill="#000000">CheckoutModule</text>
</g>
<!-- CheckoutComponent&#45;&gt;CheckoutModule -->
<g id="edge1" class="edge">
<title>CheckoutComponent&#45;&gt;CheckoutModule</title>
<path fill="none" stroke="#000000" d="M515,-122.1061C515,-141.3391 515,-169 515,-169 515,-169 335.7463,-169 335.7463,-169"/>
<polygon fill="#000000" stroke="#000000" points="335.7463,-165.5001 325.7463,-169 335.7462,-172.5001 335.7463,-165.5001"/>
</g>
<!-- CheckoutRoutingModule -->
<g id="node3" class="node">
<title>CheckoutRoutingModule</title>
<polygon fill="#8dd3c7" stroke="#000000" points="424.3243,-122 421.3243,-126 400.3243,-126 397.3243,-122 265.6757,-122 265.6757,-86 424.3243,-86 424.3243,-122"/>
<text text-anchor="middle" x="345" y="-99.8" font-family="Times,serif" font-size="14.00" fill="#000000">CheckoutRoutingModule</text>
</g>
<!-- CheckoutRoutingModule&#45;&gt;CheckoutModule -->
<g id="edge2" class="edge">
<title>CheckoutRoutingModule&#45;&gt;CheckoutModule</title>
<path fill="none" stroke="#000000" d="M295.7206,-122.1061C295.7206,-122.1061 295.7206,-140.991 295.7206,-140.991"/>
<polygon fill="#000000" stroke="#000000" points="292.2206,-140.9909 295.7206,-150.991 299.2206,-140.991 292.2206,-140.9909"/>
</g>
<!-- FeaturesModule -->
<g id="node4" class="node">
<title>FeaturesModule</title>
<polygon fill="#8dd3c7" stroke="#000000" points="247.472,-122 244.472,-126 223.472,-126 220.472,-122 140.528,-122 140.528,-86 247.472,-86 247.472,-122"/>
<text text-anchor="middle" x="194" y="-99.8" font-family="Times,serif" font-size="14.00" fill="#000000">FeaturesModule</text>
</g>
<!-- FeaturesModule&#45;&gt;CheckoutModule -->
<g id="edge3" class="edge">
<title>FeaturesModule&#45;&gt;CheckoutModule</title>
<path fill="none" stroke="#000000" d="M229.9415,-122.1061C229.9415,-122.1061 229.9415,-140.991 229.9415,-140.991"/>
<polygon fill="#000000" stroke="#000000" points="226.4415,-140.9909 229.9415,-150.991 233.4415,-140.991 226.4415,-140.9909"/>
</g>
<!-- SharedModule -->
<g id="node5" class="node">
<title>SharedModule</title>
<polygon fill="#8dd3c7" stroke="#000000" points="122.4231,-122 119.4231,-126 98.4231,-126 95.4231,-122 23.5769,-122 23.5769,-86 122.4231,-86 122.4231,-122"/>
<text text-anchor="middle" x="73" y="-99.8" font-family="Times,serif" font-size="14.00" fill="#000000">SharedModule</text>
</g>
<!-- SharedModule&#45;&gt;CheckoutModule -->
<g id="edge4" class="edge">
<title>SharedModule&#45;&gt;CheckoutModule</title>
<path fill="none" stroke="#000000" d="M73,-122.1061C73,-141.3391 73,-169 73,-169 73,-169 202.3087,-169 202.3087,-169"/>
<polygon fill="#000000" stroke="#000000" points="202.3087,-172.5001 212.3087,-169 202.3086,-165.5001 202.3087,-172.5001"/>
</g>
</g>
</svg>
