<?xml version="1.0" encoding="UTF-8" standalone="no"?>
<!DOCTYPE svg PUBLIC "-//W3C//DTD SVG 1.1//EN"
 "http://www.w3.org/Graphics/SVG/1.1/DTD/svg11.dtd">
<!-- Generated by graphviz version 2.40.1 (20161225.0304)
 -->
<!-- Title: dependencies Pages: 1 -->
<svg width="628pt" height="211pt"
 viewBox="0.00 0.00 628.00 211.00" xmlns="http://www.w3.org/2000/svg" xmlns:xlink="http://www.w3.org/1999/xlink">
<g id="graph0" class="graph" transform="scale(1 1) rotate(0) translate(4 207)">
<title>dependencies</title>
<polygon fill="#ffffff" stroke="transparent" points="-4,4 -4,-207 624,-207 624,4 -4,4"/>
<text text-anchor="start" x="289.0091" y="-42.4" font-family="sans-serif" font-weight="bold" font-size="14.00" fill="#000000">Legend</text>
<polygon fill="#ffffb3" stroke="transparent" points="76,-10 76,-30 96,-30 96,-10 76,-10"/>
<text text-anchor="start" x="99.629" y="-15.4" font-family="sans-serif" font-size="14.00" fill="#000000"> &#160;Declarations</text>
<polygon fill="#8dd3c7" stroke="transparent" points="189,-10 189,-30 209,-30 209,-10 189,-10"/>
<text text-anchor="start" x="212.7251" y="-15.4" font-family="sans-serif" font-size="14.00" fill="#000000"> &#160;Module</text>
<polygon fill="#80b1d3" stroke="transparent" points="275,-10 275,-30 295,-30 295,-10 275,-10"/>
<text text-anchor="start" x="298.7812" y="-15.4" font-family="sans-serif" font-size="14.00" fill="#000000"> &#160;Bootstrap</text>
<polygon fill="#fdb462" stroke="transparent" points="372,-10 372,-30 392,-30 392,-10 372,-10"/>
<text text-anchor="start" x="395.6732" y="-15.4" font-family="sans-serif" font-size="14.00" fill="#000000"> &#160;Providers</text>
<polygon fill="#fb8072" stroke="transparent" points="468,-10 468,-30 488,-30 488,-10 468,-10"/>
<text text-anchor="start" x="491.7258" y="-15.4" font-family="sans-serif" font-size="14.00" fill="#000000"> &#160;Exports</text>
<g id="clust1" class="cluster">
<title>cluster_CustomizeModule</title>
<polygon fill="none" stroke="#000000" stroke-dasharray="1,5" points="8,-70 8,-195 612,-195 612,-70 8,-70"/>
</g>
<g id="clust2" class="cluster">
<title>cluster_CustomizeModule_declarations</title>
<polygon fill="none" stroke="#000000" points="446,-78 446,-130 604,-130 604,-78 446,-78"/>
</g>
<g id="clust4" class="cluster">
<title>cluster_CustomizeModule_imports</title>
<polygon fill="none" stroke="#000000" points="16,-78 16,-130 438,-130 438,-78 16,-78"/>
</g>
<!-- CustomizeComponent -->
<g id="node1" class="node">
<title>CustomizeComponent</title>
<polygon fill="#ffffb3" stroke="#000000" points="595.7148,-122 454.2852,-122 454.2852,-86 595.7148,-86 595.7148,-122"/>
<text text-anchor="middle" x="525" y="-99.8" font-family="Times,serif" font-size="14.00" fill="#000000">CustomizeComponent</text>
</g>
<!-- CustomizeModule -->
<g id="node2" class="node">
<title>CustomizeModule</title>
<polygon fill="#8dd3c7" stroke="#000000" points="330.9328,-187 327.9328,-191 306.9328,-191 303.9328,-187 211.0672,-187 211.0672,-151 330.9328,-151 330.9328,-187"/>
<text text-anchor="middle" x="271" y="-164.8" font-family="Times,serif" font-size="14.00" fill="#000000">CustomizeModule</text>
</g>
<!-- CustomizeComponent&#45;&gt;CustomizeModule -->
<g id="edge1" class="edge">
<title>CustomizeComponent&#45;&gt;CustomizeModule</title>
<path fill="none" stroke="#000000" d="M525,-122.1061C525,-141.3391 525,-169 525,-169 525,-169 340.8728,-169 340.8728,-169"/>
<polygon fill="#000000" stroke="#000000" points="340.8729,-165.5001 330.8728,-169 340.8728,-172.5001 340.8729,-165.5001"/>
</g>
<!-- CustomizeRoutingModule -->
<g id="node3" class="node">
<title>CustomizeRoutingModule</title>
<polygon fill="#8dd3c7" stroke="#000000" points="430.0504,-122 427.0504,-126 406.0504,-126 403.0504,-122 265.9496,-122 265.9496,-86 430.0504,-86 430.0504,-122"/>
<text text-anchor="middle" x="348" y="-99.8" font-family="Times,serif" font-size="14.00" fill="#000000">CustomizeRoutingModule</text>
</g>
<!-- CustomizeRoutingModule&#45;&gt;CustomizeModule -->
<g id="edge2" class="edge">
<title>CustomizeRoutingModule&#45;&gt;CustomizeModule</title>
<path fill="none" stroke="#000000" d="M298.2206,-122.1061C298.2206,-122.1061 298.2206,-140.991 298.2206,-140.991"/>
<polygon fill="#000000" stroke="#000000" points="294.7206,-140.9909 298.2206,-150.991 301.7206,-140.991 294.7206,-140.9909"/>
</g>
<!-- FeaturesModule -->
<g id="node4" class="node">
<title>FeaturesModule</title>
<polygon fill="#8dd3c7" stroke="#000000" points="247.472,-122 244.472,-126 223.472,-126 220.472,-122 140.528,-122 140.528,-86 247.472,-86 247.472,-122"/>
<text text-anchor="middle" x="194" y="-99.8" font-family="Times,serif" font-size="14.00" fill="#000000">FeaturesModule</text>
</g>
<!-- FeaturesModule&#45;&gt;CustomizeModule -->
<g id="edge3" class="edge">
<title>FeaturesModule&#45;&gt;CustomizeModule</title>
<path fill="none" stroke="#000000" d="M229.385,-122.1061C229.385,-122.1061 229.385,-140.991 229.385,-140.991"/>
<polygon fill="#000000" stroke="#000000" points="225.8851,-140.9909 229.385,-150.991 232.8851,-140.991 225.8851,-140.9909"/>
</g>
<!-- SharedModule -->
<g id="node5" class="node">
<title>SharedModule</title>
<polygon fill="#8dd3c7" stroke="#000000" points="122.4231,-122 119.4231,-126 98.4231,-126 95.4231,-122 23.5769,-122 23.5769,-86 122.4231,-86 122.4231,-122"/>
<text text-anchor="middle" x="73" y="-99.8" font-family="Times,serif" font-size="14.00" fill="#000000">SharedModule</text>
</g>
<!-- SharedModule&#45;&gt;CustomizeModule -->
<g id="edge4" class="edge">
<title>SharedModule&#45;&gt;CustomizeModule</title>
<path fill="none" stroke="#000000" d="M73,-122.1061C73,-141.3391 73,-169 73,-169 73,-169 201.0561,-169 201.0561,-169"/>
<polygon fill="#000000" stroke="#000000" points="201.0562,-172.5001 211.0561,-169 201.0561,-165.5001 201.0562,-172.5001"/>
</g>
</g>
</svg>
