<?xml version="1.0" encoding="UTF-8" standalone="no"?>
<!DOCTYPE svg PUBLIC "-//W3C//DTD SVG 1.1//EN"
 "http://www.w3.org/Graphics/SVG/1.1/DTD/svg11.dtd">
<!-- Generated by graphviz version 2.40.1 (20161225.0304)
 -->
<!-- Title: dependencies Pages: 1 -->
<svg width="556pt" height="211pt"
 viewBox="0.00 0.00 556.00 211.00" xmlns="http://www.w3.org/2000/svg" xmlns:xlink="http://www.w3.org/1999/xlink">
<g id="graph0" class="graph" transform="scale(1 1) rotate(0) translate(4 207)">
<title>dependencies</title>
<polygon fill="#ffffff" stroke="transparent" points="-4,4 -4,-207 552,-207 552,4 -4,4"/>
<text text-anchor="start" x="253.0091" y="-42.4" font-family="sans-serif" font-weight="bold" font-size="14.00" fill="#000000">Legend</text>
<polygon fill="#ffffb3" stroke="transparent" points="40,-10 40,-30 60,-30 60,-10 40,-10"/>
<text text-anchor="start" x="63.629" y="-15.4" font-family="sans-serif" font-size="14.00" fill="#000000"> &#160;Declarations</text>
<polygon fill="#8dd3c7" stroke="transparent" points="153,-10 153,-30 173,-30 173,-10 153,-10"/>
<text text-anchor="start" x="176.7251" y="-15.4" font-family="sans-serif" font-size="14.00" fill="#000000"> &#160;Module</text>
<polygon fill="#80b1d3" stroke="transparent" points="239,-10 239,-30 259,-30 259,-10 239,-10"/>
<text text-anchor="start" x="262.7812" y="-15.4" font-family="sans-serif" font-size="14.00" fill="#000000"> &#160;Bootstrap</text>
<polygon fill="#fdb462" stroke="transparent" points="336,-10 336,-30 356,-30 356,-10 336,-10"/>
<text text-anchor="start" x="359.6732" y="-15.4" font-family="sans-serif" font-size="14.00" fill="#000000"> &#160;Providers</text>
<polygon fill="#fb8072" stroke="transparent" points="432,-10 432,-30 452,-30 452,-10 432,-10"/>
<text text-anchor="start" x="455.7258" y="-15.4" font-family="sans-serif" font-size="14.00" fill="#000000"> &#160;Exports</text>
<g id="clust1" class="cluster">
<title>cluster_CartModule</title>
<polygon fill="none" stroke="#000000" stroke-dasharray="1,5" points="8,-70 8,-195 540,-195 540,-70 8,-70"/>
</g>
<g id="clust2" class="cluster">
<title>cluster_CartModule_declarations</title>
<polygon fill="none" stroke="#000000" points="410,-78 410,-130 532,-130 532,-78 410,-78"/>
</g>
<g id="clust4" class="cluster">
<title>cluster_CartModule_imports</title>
<polygon fill="none" stroke="#000000" points="16,-78 16,-130 402,-130 402,-78 16,-78"/>
</g>
<!-- CartComponent -->
<g id="node1" class="node">
<title>CartComponent</title>
<polygon fill="#ffffb3" stroke="#000000" points="523.9357,-122 418.0643,-122 418.0643,-86 523.9357,-86 523.9357,-122"/>
<text text-anchor="middle" x="471" y="-99.8" font-family="Times,serif" font-size="14.00" fill="#000000">CartComponent</text>
</g>
<!-- CartModule -->
<g id="node2" class="node">
<title>CartModule</title>
<polygon fill="#8dd3c7" stroke="#000000" points="303.6529,-187 300.6529,-191 279.6529,-191 276.6529,-187 220.3471,-187 220.3471,-151 303.6529,-151 303.6529,-187"/>
<text text-anchor="middle" x="262" y="-164.8" font-family="Times,serif" font-size="14.00" fill="#000000">CartModule</text>
</g>
<!-- CartComponent&#45;&gt;CartModule -->
<g id="edge1" class="edge">
<title>CartComponent&#45;&gt;CartModule</title>
<path fill="none" stroke="#000000" d="M471,-122.1061C471,-141.3391 471,-169 471,-169 471,-169 313.792,-169 313.792,-169"/>
<polygon fill="#000000" stroke="#000000" points="313.792,-165.5001 303.792,-169 313.7919,-172.5001 313.792,-165.5001"/>
</g>
<!-- CartRoutingModule -->
<g id="node3" class="node">
<title>CartRoutingModule</title>
<polygon fill="#8dd3c7" stroke="#000000" points="394.2702,-122 391.2702,-126 370.2702,-126 367.2702,-122 265.7298,-122 265.7298,-86 394.2702,-86 394.2702,-122"/>
<text text-anchor="middle" x="330" y="-99.8" font-family="Times,serif" font-size="14.00" fill="#000000">CartRoutingModule</text>
</g>
<!-- CartRoutingModule&#45;&gt;CartModule -->
<g id="edge2" class="edge">
<title>CartRoutingModule&#45;&gt;CartModule</title>
<path fill="none" stroke="#000000" d="M284.7206,-122.1061C284.7206,-122.1061 284.7206,-140.991 284.7206,-140.991"/>
<polygon fill="#000000" stroke="#000000" points="281.2206,-140.9909 284.7206,-150.991 288.2206,-140.991 281.2206,-140.9909"/>
</g>
<!-- FeaturesModule -->
<g id="node4" class="node">
<title>FeaturesModule</title>
<polygon fill="#8dd3c7" stroke="#000000" points="247.472,-122 244.472,-126 223.472,-126 220.472,-122 140.528,-122 140.528,-86 247.472,-86 247.472,-122"/>
<text text-anchor="middle" x="194" y="-99.8" font-family="Times,serif" font-size="14.00" fill="#000000">FeaturesModule</text>
</g>
<!-- FeaturesModule&#45;&gt;CartModule -->
<g id="edge3" class="edge">
<title>FeaturesModule&#45;&gt;CartModule</title>
<path fill="none" stroke="#000000" d="M233.83,-122.1061C233.83,-122.1061 233.83,-140.991 233.83,-140.991"/>
<polygon fill="#000000" stroke="#000000" points="230.33,-140.9909 233.83,-150.991 237.33,-140.991 230.33,-140.9909"/>
</g>
<!-- SharedModule -->
<g id="node5" class="node">
<title>SharedModule</title>
<polygon fill="#8dd3c7" stroke="#000000" points="122.4231,-122 119.4231,-126 98.4231,-126 95.4231,-122 23.5769,-122 23.5769,-86 122.4231,-86 122.4231,-122"/>
<text text-anchor="middle" x="73" y="-99.8" font-family="Times,serif" font-size="14.00" fill="#000000">SharedModule</text>
</g>
<!-- SharedModule&#45;&gt;CartModule -->
<g id="edge4" class="edge">
<title>SharedModule&#45;&gt;CartModule</title>
<path fill="none" stroke="#000000" d="M73,-122.1061C73,-141.3391 73,-169 73,-169 73,-169 210.0548,-169 210.0548,-169"/>
<polygon fill="#000000" stroke="#000000" points="210.0548,-172.5001 220.0548,-169 210.0547,-165.5001 210.0548,-172.5001"/>
</g>
</g>
</svg>
