<?xml version="1.0" encoding="UTF-8" standalone="no"?>
<!DOCTYPE svg PUBLIC "-//W3C//DTD SVG 1.1//EN"
 "http://www.w3.org/Graphics/SVG/1.1/DTD/svg11.dtd">
<!-- Generated by graphviz version 2.40.1 (20161225.0304)
 -->
<!-- Title: dependencies Pages: 1 -->
<svg width="576pt" height="211pt"
 viewBox="0.00 0.00 576.00 211.00" xmlns="http://www.w3.org/2000/svg" xmlns:xlink="http://www.w3.org/1999/xlink">
<g id="graph0" class="graph" transform="scale(1 1) rotate(0) translate(4 207)">
<title>dependencies</title>
<polygon fill="#ffffff" stroke="transparent" points="-4,4 -4,-207 572,-207 572,4 -4,4"/>
<text text-anchor="start" x="263.0091" y="-42.4" font-family="sans-serif" font-weight="bold" font-size="14.00" fill="#000000">Legend</text>
<polygon fill="#ffffb3" stroke="transparent" points="50,-10 50,-30 70,-30 70,-10 50,-10"/>
<text text-anchor="start" x="73.629" y="-15.4" font-family="sans-serif" font-size="14.00" fill="#000000"> &#160;Declarations</text>
<polygon fill="#8dd3c7" stroke="transparent" points="163,-10 163,-30 183,-30 183,-10 163,-10"/>
<text text-anchor="start" x="186.7251" y="-15.4" font-family="sans-serif" font-size="14.00" fill="#000000"> &#160;Module</text>
<polygon fill="#80b1d3" stroke="transparent" points="249,-10 249,-30 269,-30 269,-10 249,-10"/>
<text text-anchor="start" x="272.7812" y="-15.4" font-family="sans-serif" font-size="14.00" fill="#000000"> &#160;Bootstrap</text>
<polygon fill="#fdb462" stroke="transparent" points="346,-10 346,-30 366,-30 366,-10 346,-10"/>
<text text-anchor="start" x="369.6732" y="-15.4" font-family="sans-serif" font-size="14.00" fill="#000000"> &#160;Providers</text>
<polygon fill="#fb8072" stroke="transparent" points="442,-10 442,-30 462,-30 462,-10 442,-10"/>
<text text-anchor="start" x="465.7258" y="-15.4" font-family="sans-serif" font-size="14.00" fill="#000000"> &#160;Exports</text>
<g id="clust1" class="cluster">
<title>cluster_HomeModule</title>
<polygon fill="none" stroke="#000000" stroke-dasharray="1,5" points="8,-70 8,-195 560,-195 560,-70 8,-70"/>
</g>
<g id="clust2" class="cluster">
<title>cluster_HomeModule_declarations</title>
<polygon fill="none" stroke="#000000" points="420,-78 420,-130 552,-130 552,-78 420,-78"/>
</g>
<g id="clust4" class="cluster">
<title>cluster_HomeModule_imports</title>
<polygon fill="none" stroke="#000000" points="16,-78 16,-130 412,-130 412,-78 16,-78"/>
</g>
<!-- HomeComponent -->
<g id="node1" class="node">
<title>HomeComponent</title>
<polygon fill="#ffffb3" stroke="#000000" points="543.5451,-122 428.4549,-122 428.4549,-86 543.5451,-86 543.5451,-122"/>
<text text-anchor="middle" x="486" y="-99.8" font-family="Times,serif" font-size="14.00" fill="#000000">HomeComponent</text>
</g>
<!-- HomeModule -->
<g id="node2" class="node">
<title>HomeModule</title>
<polygon fill="#8dd3c7" stroke="#000000" points="326.7619,-187 323.7619,-191 302.7619,-191 299.7619,-187 233.2381,-187 233.2381,-151 326.7619,-151 326.7619,-187"/>
<text text-anchor="middle" x="280" y="-164.8" font-family="Times,serif" font-size="14.00" fill="#000000">HomeModule</text>
</g>
<!-- HomeComponent&#45;&gt;HomeModule -->
<g id="edge1" class="edge">
<title>HomeComponent&#45;&gt;HomeModule</title>
<path fill="none" stroke="#000000" d="M486,-122.1061C486,-141.3391 486,-169 486,-169 486,-169 337.0024,-169 337.0024,-169"/>
<polygon fill="#000000" stroke="#000000" points="337.0024,-165.5001 327.0024,-169 337.0023,-172.5001 337.0024,-165.5001"/>
</g>
<!-- FeaturesModule -->
<g id="node3" class="node">
<title>FeaturesModule</title>
<polygon fill="#8dd3c7" stroke="#000000" points="404.472,-122 401.472,-126 380.472,-126 377.472,-122 297.528,-122 297.528,-86 404.472,-86 404.472,-122"/>
<text text-anchor="middle" x="351" y="-99.8" font-family="Times,serif" font-size="14.00" fill="#000000">FeaturesModule</text>
</g>
<!-- FeaturesModule&#45;&gt;HomeModule -->
<g id="edge2" class="edge">
<title>FeaturesModule&#45;&gt;HomeModule</title>
<path fill="none" stroke="#000000" d="M312.1974,-122.1061C312.1974,-122.1061 312.1974,-140.991 312.1974,-140.991"/>
<polygon fill="#000000" stroke="#000000" points="308.6975,-140.9909 312.1974,-150.991 315.6975,-140.991 308.6975,-140.9909"/>
</g>
<!-- HomeRoutingModule -->
<g id="node4" class="node">
<title>HomeRoutingModule</title>
<polygon fill="#8dd3c7" stroke="#000000" points="279.3795,-122 276.3795,-126 255.3795,-126 252.3795,-122 140.6205,-122 140.6205,-86 279.3795,-86 279.3795,-122"/>
<text text-anchor="middle" x="210" y="-99.8" font-family="Times,serif" font-size="14.00" fill="#000000">HomeRoutingModule</text>
</g>
<!-- HomeRoutingModule&#45;&gt;HomeModule -->
<g id="edge3" class="edge">
<title>HomeRoutingModule&#45;&gt;HomeModule</title>
<path fill="none" stroke="#000000" d="M256.2795,-122.1061C256.2795,-122.1061 256.2795,-140.991 256.2795,-140.991"/>
<polygon fill="#000000" stroke="#000000" points="252.7795,-140.9909 256.2795,-150.991 259.7795,-140.991 252.7795,-140.9909"/>
</g>
<!-- SharedModule -->
<g id="node5" class="node">
<title>SharedModule</title>
<polygon fill="#8dd3c7" stroke="#000000" points="122.4231,-122 119.4231,-126 98.4231,-126 95.4231,-122 23.5769,-122 23.5769,-86 122.4231,-86 122.4231,-122"/>
<text text-anchor="middle" x="73" y="-99.8" font-family="Times,serif" font-size="14.00" fill="#000000">SharedModule</text>
</g>
<!-- SharedModule&#45;&gt;HomeModule -->
<g id="edge4" class="edge">
<title>SharedModule&#45;&gt;HomeModule</title>
<path fill="none" stroke="#000000" d="M73,-122.1061C73,-141.3391 73,-169 73,-169 73,-169 223.0285,-169 223.0285,-169"/>
<polygon fill="#000000" stroke="#000000" points="223.0285,-172.5001 233.0285,-169 223.0285,-165.5001 223.0285,-172.5001"/>
</g>
</g>
</svg>
