<?xml version="1.0" encoding="UTF-8" standalone="no"?>
<!DOCTYPE svg PUBLIC "-//W3C//DTD SVG 1.1//EN"
 "http://www.w3.org/Graphics/SVG/1.1/DTD/svg11.dtd">
<!-- Generated by graphviz version 2.40.1 (20161225.0304)
 -->
<!-- Title: dependencies Pages: 1 -->
<svg width="814pt" height="284pt"
 viewBox="0.00 0.00 814.00 284.00" xmlns="http://www.w3.org/2000/svg" xmlns:xlink="http://www.w3.org/1999/xlink">
<g id="graph0" class="graph" transform="scale(1 1) rotate(0) translate(4 280)">
<title>dependencies</title>
<polygon fill="#ffffff" stroke="transparent" points="-4,4 -4,-280 810,-280 810,4 -4,4"/>
<text text-anchor="start" x="382.0091" y="-42.4" font-family="sans-serif" font-weight="bold" font-size="14.00" fill="#000000">Legend</text>
<polygon fill="#ffffb3" stroke="transparent" points="169,-10 169,-30 189,-30 189,-10 169,-10"/>
<text text-anchor="start" x="192.629" y="-15.4" font-family="sans-serif" font-size="14.00" fill="#000000"> &#160;Declarations</text>
<polygon fill="#8dd3c7" stroke="transparent" points="282,-10 282,-30 302,-30 302,-10 282,-10"/>
<text text-anchor="start" x="305.7251" y="-15.4" font-family="sans-serif" font-size="14.00" fill="#000000"> &#160;Module</text>
<polygon fill="#80b1d3" stroke="transparent" points="368,-10 368,-30 388,-30 388,-10 368,-10"/>
<text text-anchor="start" x="391.7812" y="-15.4" font-family="sans-serif" font-size="14.00" fill="#000000"> &#160;Bootstrap</text>
<polygon fill="#fdb462" stroke="transparent" points="465,-10 465,-30 485,-30 485,-10 465,-10"/>
<text text-anchor="start" x="488.6732" y="-15.4" font-family="sans-serif" font-size="14.00" fill="#000000"> &#160;Providers</text>
<polygon fill="#fb8072" stroke="transparent" points="561,-10 561,-30 581,-30 581,-10 561,-10"/>
<text text-anchor="start" x="584.7258" y="-15.4" font-family="sans-serif" font-size="14.00" fill="#000000"> &#160;Exports</text>
<g id="clust1" class="cluster">
<title>cluster_AppModule</title>
<polygon fill="none" stroke="#000000" stroke-dasharray="1,5" points="8,-70 8,-268 798,-268 798,-70 8,-70"/>
</g>
<g id="clust2" class="cluster">
<title>cluster_AppModule_declarations</title>
<polygon fill="none" stroke="#000000" points="668,-78 668,-130 790,-130 790,-78 668,-78"/>
</g>
<g id="clust4" class="cluster">
<title>cluster_AppModule_imports</title>
<polygon fill="none" stroke="#000000" points="286,-78 286,-130 660,-130 660,-78 286,-78"/>
</g>
<g id="clust6" class="cluster">
<title>cluster_AppModule_bootstrap</title>
<polygon fill="none" stroke="#000000" points="400,-208 400,-260 524,-260 524,-208 400,-208"/>
</g>
<g id="clust7" class="cluster">
<title>cluster_AppModule_providers</title>
<polygon fill="none" stroke="#000000" points="16,-78 16,-130 278,-130 278,-78 16,-78"/>
</g>
<!-- AppComponent -->
<g id="node1" class="node">
<title>AppComponent</title>
<polygon fill="#ffffb3" stroke="#000000" points="781.9399,-122 676.0601,-122 676.0601,-86 781.9399,-86 781.9399,-122"/>
<text text-anchor="middle" x="729" y="-99.8" font-family="Times,serif" font-size="14.00" fill="#000000">AppComponent</text>
</g>
<!-- AppModule -->
<g id="node2" class="node">
<title>AppModule</title>
<polygon fill="#8dd3c7" stroke="#000000" points="503.6571,-187 500.6571,-191 479.6571,-191 476.6571,-187 420.3429,-187 420.3429,-151 503.6571,-151 503.6571,-187"/>
<text text-anchor="middle" x="462" y="-164.8" font-family="Times,serif" font-size="14.00" fill="#000000">AppModule</text>
</g>
<!-- AppComponent&#45;&gt;AppModule -->
<g id="edge1" class="edge">
<title>AppComponent&#45;&gt;AppModule</title>
<path fill="none" stroke="#000000" d="M729,-122.2843C729,-143.3211 729,-175 729,-175 729,-175 513.7188,-175 513.7188,-175"/>
<polygon fill="#000000" stroke="#000000" points="513.7188,-171.5001 503.7188,-175 513.7187,-178.5001 513.7188,-171.5001"/>
</g>
<!-- AppComponent  -->
<g id="node6" class="node">
<title>AppComponent </title>
<polygon fill="#80b1d3" stroke="#000000" points="516.439,-252 407.561,-252 407.561,-216 516.439,-216 516.439,-252"/>
<text text-anchor="middle" x="462" y="-229.8" font-family="Times,serif" font-size="14.00" fill="#000000">AppComponent </text>
</g>
<!-- AppModule&#45;&gt;AppComponent  -->
<g id="edge5" class="edge">
<title>AppModule&#45;&gt;AppComponent </title>
<path fill="none" stroke="#000000" stroke-dasharray="1,5" d="M462,-187.1061C462,-187.1061 462,-205.991 462,-205.991"/>
<polygon fill="#000000" stroke="#000000" points="458.5001,-205.9909 462,-215.991 465.5001,-205.991 458.5001,-205.9909"/>
</g>
<!-- AppRoutingModule -->
<g id="node3" class="node">
<title>AppRoutingModule</title>
<polygon fill="#8dd3c7" stroke="#000000" points="652.2744,-122 649.2744,-126 628.2744,-126 625.2744,-122 523.7256,-122 523.7256,-86 652.2744,-86 652.2744,-122"/>
<text text-anchor="middle" x="588" y="-99.8" font-family="Times,serif" font-size="14.00" fill="#000000">AppRoutingModule</text>
</g>
<!-- AppRoutingModule&#45;&gt;AppModule -->
<g id="edge2" class="edge">
<title>AppRoutingModule&#45;&gt;AppModule</title>
<path fill="none" stroke="#000000" d="M588,-122.0225C588,-139.3734 588,-163 588,-163 588,-163 513.9562,-163 513.9562,-163"/>
<polygon fill="#000000" stroke="#000000" points="513.9562,-159.5001 503.9562,-163 513.9561,-166.5001 513.9562,-159.5001"/>
</g>
<!-- CoreModule -->
<g id="node4" class="node">
<title>CoreModule</title>
<polygon fill="#8dd3c7" stroke="#000000" points="505.2619,-122 502.2619,-126 481.2619,-126 478.2619,-122 418.7381,-122 418.7381,-86 505.2619,-86 505.2619,-122"/>
<text text-anchor="middle" x="462" y="-99.8" font-family="Times,serif" font-size="14.00" fill="#000000">CoreModule</text>
</g>
<!-- CoreModule&#45;&gt;AppModule -->
<g id="edge3" class="edge">
<title>CoreModule&#45;&gt;AppModule</title>
<path fill="none" stroke="#000000" d="M462,-122.1061C462,-122.1061 462,-140.991 462,-140.991"/>
<polygon fill="#000000" stroke="#000000" points="458.5001,-140.9909 462,-150.991 465.5001,-140.991 458.5001,-140.9909"/>
</g>
<!-- FeaturesModule -->
<g id="node5" class="node">
<title>FeaturesModule</title>
<polygon fill="#8dd3c7" stroke="#000000" points="400.472,-122 397.472,-126 376.472,-126 373.472,-122 293.528,-122 293.528,-86 400.472,-86 400.472,-122"/>
<text text-anchor="middle" x="347" y="-99.8" font-family="Times,serif" font-size="14.00" fill="#000000">FeaturesModule</text>
</g>
<!-- FeaturesModule&#45;&gt;AppModule -->
<g id="edge4" class="edge">
<title>FeaturesModule&#45;&gt;AppModule</title>
<path fill="none" stroke="#000000" d="M347,-122.0225C347,-139.3734 347,-163 347,-163 347,-163 410.157,-163 410.157,-163"/>
<polygon fill="#000000" stroke="#000000" points="410.1571,-166.5001 420.157,-163 410.157,-159.5001 410.1571,-166.5001"/>
</g>
<!-- HttpCommunicationsService -->
<g id="node7" class="node">
<title>HttpCommunicationsService</title>
<ellipse fill="#fdb462" stroke="#000000" cx="147" cy="-104" rx="123.292" ry="18"/>
<text text-anchor="middle" x="147" y="-99.8" font-family="Times,serif" font-size="14.00" fill="#000000">HttpCommunicationsService</text>
</g>
<!-- HttpCommunicationsService&#45;&gt;AppModule -->
<g id="edge6" class="edge">
<title>HttpCommunicationsService&#45;&gt;AppModule</title>
<path fill="none" stroke="#000000" d="M147,-122.2843C147,-143.3211 147,-175 147,-175 147,-175 410.1704,-175 410.1704,-175"/>
<polygon fill="#000000" stroke="#000000" points="410.1705,-178.5001 420.1704,-175 410.1704,-171.5001 410.1705,-178.5001"/>
</g>
</g>
</svg>
